<svg height="512" viewBox="0 0 512 512" width="512" xmlns="http://www.w3.org/2000/svg"><g id="Filled_outline" data-name="Filled outline"><path d="m360 496v-104l45.9 78.692a34.885 34.885 0 0 0 30.137 17.308 34.885 34.885 0 0 0 32.288-48.094l-52.325-127.906-98-24-14-16v-64h-96v64l-13.819 16-98.181 24-64 128 56 24 64-72v104" fill="#fec9a3"/><path d="m304 245.558v-37.558h-96v37.558a71.687 71.687 0 0 0 96 0z" fill="#feb784"/><path d="m470.96 453.14a34.911 34.911 0 0 1 -65.06 17.55l-45.9-78.69v104h-208v-104l-64 72-56-24 64-128 56-13.71 42.18-10.29 13.82-16 32.88 38.36 15.12 17.64 15.11-17.63 32.89-38.37 14 16 42 10.29 56 13.71 52.33 127.91a34.783 34.783 0 0 1 2.63 13.23z" fill="#c7c7c5"/><path d="m240.88 310.36-32.88 33.64-13.82-56 13.82-16z" fill="#e0e0de"/><path d="m318 288-14 56-32.89-33.63 32.89-38.37z" fill="#e0e0de"/><path d="m328 112h8a24 24 0 0 1 24 24 24 24 0 0 1 -24 24h-8a0 0 0 0 1 0 0v-48a0 0 0 0 1 0 0z" fill="#feb784"/><path d="m184 112h-8a24.071 24.071 0 0 0 -24 24 24.071 24.071 0 0 0 24 24h8.48" fill="#feb784"/><path d="m328 101.59v56a72 72 0 1 1 -144 0v-56a72 72 0 0 1 144 0z" fill="#fec9a3"/><path d="m328 101.59v56a71.991 71.991 0 0 1 -38.15 63.56 71.739 71.739 0 0 0 6.15-29.15v-88a72.032 72.032 0 0 0 -61.29-71.21 72.024 72.024 0 0 1 93.29 68.8z" fill="#fec093"/><path d="m328 77.59v34.41c-11.76-14.12-21.53-32.76-29.08-50.41h-.01c-2.32.87-4.67 1.66-7.03 2.37a122.5 122.5 0 0 1 -35.88 5.37 122.749 122.749 0 0 1 -42.91-7.74c-7.56 17.65-17.33 36.29-29.09 50.41v-34.41a54.761 54.761 0 0 1 6.7-26.59 43.1 43.1 0 0 1 17.3-17.39 124.6 124.6 0 0 1 48-9.61c.34 0 .69 0 1.03.01a124.457 124.457 0 0 1 46.97 9.6c14.12 7.41 24 24.3 24 43.98z" fill="#7a432a"/><path d="m328 120v56a72 72 0 0 1 -144 0v-48l32 40a54.641 54.641 0 0 1 38.63-16h2.74a54.636 54.636 0 0 1 38.63 16z" fill="#7a432a"/><path d="m328 120v56a72.05 72.05 0 0 1 -56.83 70.4 71.842 71.842 0 0 0 24.83-54.4v-24z" fill="#743b20"/><path d="m488 308.84v17.27a465.025 465.025 0 0 1 -7.49 83.1l-8.51 46.79h-64l-8.51-46.79a465.025 465.025 0 0 1 -7.49-83.1v-17.27c0-1.63.07-3.24.22-4.84a53.885 53.885 0 0 1 23.78-40v-24h48v24a53.885 53.885 0 0 1 23.78 40c.15 1.6.22 3.21.22 4.84z" fill="#e0e0de"/><path d="m488 308.84v17.27a465.025 465.025 0 0 1 -7.49 83.1l-8.51 46.79h-36.33c15.08-55.61 23.44-132.58-4.65-216h32.98v24a53.885 53.885 0 0 1 23.78 40c.15 1.6.22 3.21.22 4.84z" fill="#d6d6d4"/><path d="m488 308.84v11.16h-96v-11.16c0-1.63.07-3.24.22-4.84h95.56c.15 1.6.22 3.21.22 4.84z" fill="#b0b0ae"/><path d="m416.946 352.574c-.413-5.731-.729-11.2-.939-16.241l15.986-.666c.2 4.885.51 10.187.912 15.759z" fill="#ebebe9"/><path d="m426.836 425.431-3.731-20.515c-1.794-9.874-3.45-22.372-4.788-36.143l15.925-1.546c1.3 13.338 2.888 25.381 4.606 34.827l3.73 20.515z" fill="#ebebe9"/><path d="m488 398.01v53.45a36.545 36.545 0 0 1 -60.2 27.85l-.66-.56-36.89-31.35a16.027 16.027 0 0 1 -4.49-19.98l17.62-34.42a16.865 16.865 0 0 1 25.9-4.94l30.03 25.82 4.8-18.75a12.183 12.183 0 0 1 16.78-7.91 12.061 12.061 0 0 1 5.18 4.37 11.7 11.7 0 0 1 1.93 6.42z" fill="#fec9a3"/><path d="m62.389 488a33.61 33.61 0 0 1 -33.315-38.053l10.926-81.947h56v86.389a33.611 33.611 0 0 1 -33.611 33.611z" fill="#e0e0de"/><path d="m128 320h-64l16-48-16-48h64l-16 48z" fill="#e0e0de"/><path d="m112 320v48a16 16 0 0 1 -16 16h-46.4a9.6 9.6 0 0 1 -9.6-9.6v-60.8a9.6 9.6 0 0 1 9.6-9.6h46.4a16 16 0 0 1 16 16z" fill="#fec9a3"/><path d="m112 320v48a16 16 0 0 1 -16 16h-24a16 16 0 0 0 16-16v-48a16 16 0 0 0 -16-16h24a16 16 0 0 1 16 16z" fill="#fec093"/><path d="m360 298.29v197.71h-208v-197.71l42.181-10.29 61.819 168 62-168z" fill="#3d4d63"/><path d="m304 392h64v32h-64z" fill="#ffb531"/><path d="m304 408h64v16h-64z" fill="#ffa912"/><path d="m328 77.59v34.41c-11.76-14.12-21.53-32.76-29.08-50.41h-.01c-2.32.87-4.67 1.66-7.03 2.37a72.2 72.2 0 0 0 -34.85-39.95 124.457 124.457 0 0 1 46.97 9.6c14.12 7.41 24 24.3 24 43.98z" fill="#743b20"/><path d="m488 413.56v37.9a36.545 36.545 0 0 1 -60.2 27.85l-.66-.56a369.7 369.7 0 0 0 60.86-65.19z" fill="#fec093"/><path d="m232 121.588a12 12 0 1 0 -12 12 12.014 12.014 0 0 0 12-12z"/><path d="m292 133.588a12 12 0 1 0 -12-12 12.013 12.013 0 0 0 12 12z"/><path d="m284.031 182.91-8.062-13.82c-7.528 4.391-18.127 6.91-29.078 6.91h-14.891v16h14.891c13.902 0 27.092-3.228 37.14-9.09z"/><path d="m216 464h16v16h-16z"/><path d="m432.905 351.426c-.4-5.572-.708-10.874-.912-15.759l-15.986.666c.21 5.045.526 10.51.939 16.241z"/><path d="m472 259.9v-19.9a8 8 0 0 0 -8-8h-48a8 8 0 0 0 -8 8v19.9a61.711 61.711 0 0 0 -22.688 36.345l-62.955-15.418-10.357-11.833v-35.935a79.748 79.748 0 0 0 24-57.059v-8a32 32 0 0 0 0-64v-26.412c0-22-11.1-42.048-28.283-51.063-.208-.109-.421-.209-.637-.3a133.545 133.545 0 0 0 -102.16 0c-.216.09-.429.19-.637.3-17.183 9.015-28.283 29.058-28.283 51.063v26.412a32 32 0 0 0 0 64v8a79.748 79.748 0 0 0 24 57.059v35.935l-10.339 11.816-61.283 15.025-7.945-23.835 15.156-45.47a8 8 0 0 0 -7.589-10.53h-64a8 8 0 0 0 -7.589 10.53l15.156 45.47-8 24h-13.967a17.621 17.621 0 0 0 -17.6 17.6v53.869l-10.86 81.431a41.6 41.6 0 1 0 82.662 9.366l40.2-45.22v82.954h16v-191.436l29.126-7.134 58.874 160v38.57h16v-38.575l58.874-159.994 29.124 7.135v79.434h-48a8 8 0 0 0 -8 8v32a8 8 0 0 0 8 8h48v64h16v-64a7.964 7.964 0 0 0 5.029-1.782l3.018 5.176a24.193 24.193 0 0 0 9.138 18.2l2.931 2.49 10.876 18.637a42.915 42.915 0 0 0 37.048 21.279h15.42a44.59 44.59 0 0 0 44.54-44.54v-53.455a19.659 19.659 0 0 0 -3.875-11.685 473.568 473.568 0 0 0 3.875-60.21v-17.266a61.759 61.759 0 0 0 -24-48.944zm8 66.206a457.642 457.642 0 0 1 -3 52.08 20.332 20.332 0 0 0 -10.009 2 19.875 19.875 0 0 0 -10.634 12.954l-1.6 6.266-18.724-16.1c-.637-5.07-1.239-10.454-1.788-16.089l-15.925 1.552c.24 2.46.493 4.861.75 7.231a25.309 25.309 0 0 0 -5.613.465 24.808 24.808 0 0 0 -10.126 4.479 457.039 457.039 0 0 1 -3.331-54.834v-6.11h80zm-59.563-55.454a8 8 0 0 0 3.563-6.652v-16h32v16a8 8 0 0 0 3.562 6.656 45.78 45.78 0 0 1 20.165 33.344h-79.454a45.782 45.782 0 0 1 20.164-33.344zm-116.375 13.568 4.662 5.328-13.283 36.1-13.707-15.378zm-96.147.027 22.23 26.133-13.588 15.262-13.281-36.094zm32.847 38.269 7.238 8.444v80.134l-25.179-68.427zm23.238 8.444 7.227-8.432 17.951 20.141-25.178 68.425zm-72-216.119c8.933-11.24 17.471-25.775 25.448-43.321a130.877 130.877 0 0 0 77.1 0c7.983 17.548 16.521 32.08 25.452 43.321v2.737l-25.655 38.483a62.16 62.16 0 0 0 -36.972-12.061h-2.746a62.157 62.157 0 0 0 -37.574 12.509l-25.053-31.315zm160 21.159a16.019 16.019 0 0 1 -16 16v-32a16.019 16.019 0 0 1 16 16zm-160-58.412c0-15.994 7.611-30.369 19.419-36.736a117.457 117.457 0 0 1 89.162 0c11.808 6.367 19.419 20.742 19.419 36.736v8.639a261.345 261.345 0 0 1 -13.731-27.787 8 8 0 0 0 -10.149-4.347 114.863 114.863 0 0 1 -80.24 0 8 8 0 0 0 -10.149 4.348 261.365 261.365 0 0 1 -13.731 27.787zm-32 58.412a16.019 16.019 0 0 1 16-16v32a16.019 16.019 0 0 1 -16-16zm32 40v-25.194l17.753 22.194a8 8 0 0 0 11.9.659 46.32 46.32 0 0 1 32.974-13.659h2.746a46.32 46.32 0 0 1 32.97 13.657 8 8 0 0 0 12.313-1.219l17.344-26.016v29.578a64 64 0 0 1 -128 0zm64 80a79.475 79.475 0 0 0 40-10.763v23.789l-31.057 36a8 8 0 0 0 -.925 1.329l-8.018 9.353-40-46.668v-23.8a79.475 79.475 0 0 0 40 10.76zm-168.411 13.47-12.489-37.47h41.8l-12.489 37.47a7.992 7.992 0 0 0 0 5.06l10.051 30.154a23.959 23.959 0 0 0 -18.462-8.684h-15.569l7.158-21.469a8 8 0 0 0 0-5.061zm-39.589 44.13a1.6 1.6 0 0 1 1.6-1.6h46.4a8.009 8.009 0 0 1 8 8v48a8.009 8.009 0 0 1 -8 8h-46.4a1.6 1.6 0 0 1 -1.6-1.6zm40 141.038c0 .076-.006.152-.007.227a25.61 25.61 0 1 1 -50.993-3.857l7.955-59.65a17.546 17.546 0 0 0 4.645.642h38.4zm56-65.679-40 45v-43.335a24.038 24.038 0 0 0 16-22.624v-40h8a8 8 0 0 0 7.589-10.53l-2.135-6.405 10.546-2.582zm224-80.477 16 3.918v13.71a472.777 472.777 0 0 0 6.073 75.326l-7.156 13.98-6.917-11.858v-11.558a8 8 0 0 0 -8-8zm-56 91.518h48v16h-48zm168 51.46a28.54 28.54 0 0 1 -47.02 21.749l-37.548-31.9c-.083-.071-.168-.14-.254-.207a8 8 0 0 1 -2.3-10.034l17.622-34.425a8.551 8.551 0 0 1 6.035-4.471 9.222 9.222 0 0 1 1.773-.173 8.792 8.792 0 0 1 5.757 2.127l30.029 25.821a8 8 0 0 0 12.966-4.082l4.8-18.75a3.882 3.882 0 0 1 2.113-2.523 4.352 4.352 0 0 1 3.673-.061 3.857 3.857 0 0 1 2.354 3.474z"/></g></svg>