<svg height="512pt" viewBox="-36 0 512 512.002" width="512pt" xmlns="http://www.w3.org/2000/svg"><path d="m185.617188 328.765625 6.820312-12.640625c1.304688-2.421875 4.625-4.398438 7.375-4.398438h57.210938c2.75 0 6.066406 1.976563 7.371093 4.398438l6.820313 12.640625h18.328125v-72.324219h-24.179688v30.957032c0 2.75-2.25 5-5 5h-63.890625c-2.75 0-5-2.25-5-5v-30.957032h-27.929687v72.324219zm0 0" fill="#def9ff"/><path d="m163.542969 444h126v60.5h-126zm0 0" fill="#def9ff"/><path d="m157.542969 444v.648438c0 5.726562-4.652344 10.386718-10.375 10.386718h-26.304688c-5.722656 0-10.378906-4.660156-10.378906-10.386718v-44.78125c0-5.726563 4.65625-10.386719 10.378906-10.386719h18.425781v-43.765625c0-9.324219 7.632813-16.949219 16.953126-16.949219h7.300781v-72.324219h-32.539063c-14.054687 0-26.308594 7.808594-32.609375 19.292969l-81.433593 110.601563c-14.410157 19.566406-8.824219 35.800781-5.75 41.875 3.070312 6.070312 12.835937 20.195312 37.140624 20.195312h45.527344v51.664062c0 2.445313 1.984375 4.429688 4.433594 4.429688h65.230469v-60.5zm-63.664063-44.105469h-26.65625l26.65625-36.199219zm0 0" fill="#0079f1"/><path d="m27.71875 404.890625 81.433594-110.597656c6.304687-11.484375 18.558594-19.292969 32.609375-19.292969h21.78125v-18.558594h-32.539063c-14.054687 0-26.308594 7.808594-32.609375 19.292969l-81.4375 110.597656c-14.40625 19.566407-8.820312 35.804688-5.75 41.875 1.273438 2.515625 3.707031 6.410157 7.832031 10.113281-1.683593-8.085937-1.234374-19.96875 8.679688-33.429687zm0 0" fill="#0052ac"/><path d="m212.589844 464.953125h31.652344v39.546875h-31.652344zm0 0" fill="#6d6e71"/><path d="m212.589844 464.953125h16.042968v39.546875h-16.042968zm0 0" fill="#585959"/><path d="m190.796875 444v16.363281c0 2.523438 2.0625 4.589844 4.585937 4.589844h66.066407c2.523437 0 4.585937-2.0625 4.585937-4.589844v-16.363281zm0 0" fill="#383838"/><path d="m211.289062 460.363281v-16.363281h-20.492187v16.363281c0 2.523438 2.0625 4.589844 4.589844 4.589844h20.488281c-2.523438 0-4.585938-2.0625-4.585938-4.589844zm0 0" fill="#282828"/><path d="m279.113281 7.5h-146.011719c-7.238281 0-13.105468 5.863281-13.105468 13.101562 0 6.238282 4.363281 11.449219 10.199218 12.769532-5.835937 1.320312-10.199218 6.53125-10.199218 12.769531 0 4.976563 2.773437 9.300781 6.859375 11.519531v72.292969c.480469-.042969.964843-.070313 1.453125-.070313h14.21875v-10.15625c0-21.628906 8.269531-38.058593 24.578125-48.835937 14.226562-9.402344 34.835937-14.371094 59.601562-14.371094s45.375 4.96875 59.601563 14.371094c16.304687 10.777344 24.574218 27.207031 24.574218 48.835937v10.15625h14.21875c.492188 0 .976563.027344 1.457032.070313v-75.019531c0-26.089844-21.351563-47.433594-47.445313-47.433594zm0 0" fill="#b57a4e"/><path d="m119.996094 46.140625c0 4.976563 2.773437 9.300781 6.859375 11.519531v72.292969c.480469-.042969.964843-.070313 1.457031-.070313h14.214844v-10.15625c0-8.417968 1.269531-16.035156 3.761718-22.847656v-53.816406c0-14.125 6.269532-26.851562 16.152344-35.5625h-29.339844c-7.238281 0-13.105468 5.863281-13.105468 13.101562 0 6.238282 4.363281 11.449219 10.199218 12.769532-5.835937 1.320312-10.199218 6.53125-10.199218 12.769531zm0 0" fill="#9b5729"/><g fill="#ffe2b8"><path d="m142.027344 169.144531v-39.261719h-13.714844c-8.789062 0-15.914062 7.09375-15.914062 15.84375v19.1875c0 8.75 7.125 15.847657 15.914062 15.847657h14.625c-.597656-3.789063-.910156-7.667969-.910156-11.617188zm0 0"/><path d="m325.105469 129.882812h-13.71875v39.261719c0 3.949219-.316407 7.828125-.910157 11.617188h14.628907c8.789062 0 15.910156-7.097657 15.910156-15.851563v-19.183594c0-8.75-7.121094-15.84375-15.910156-15.84375zm0 0"/><path d="m226.707031 56.019531c-46.765625 0-84.679687 17.308594-84.679687 63.707031v49.417969c0 32.277344 20.613281 59.757813 49.441406 70.109375v-23.855468c0-2.75 2.25-5 5-5h63.890625c2.75 0 5 2.25 5 5v22.535156c27.027344-11.234375 46.023437-37.800782 46.023437-68.789063v-49.417969c.003907-46.398437-37.910156-63.707031-84.675781-63.707031zm0 0"/></g><path d="m191.472656 227.660156c-17.375-13.640625-28.542968-34.769531-28.542968-58.519531v-49.414063c0-42.886718 32.394531-60.90625 74.230468-63.394531-3.429687-.203125-6.910156-.316406-10.453125-.316406-46.765625 0-84.679687 17.3125-84.679687 63.710937v49.414063c0 32.28125 20.613281 59.761719 49.445312 70.113281zm0 0" fill="#ffc987"/><path d="m250.292969 210.398438c3.988281-4.996094 6.378906-11.308594 6.378906-18.167969 0-3.066407-2.507813-5.5625-5.597656-5.5625h-47.765625c-3.085938 0-5.597656 2.496093-5.597656 5.5625 0 6.859375 2.390624 13.171875 6.382812 18.167969zm0 0" fill="#ffa05f"/><path d="m224.722656 210.398438c-3.992187-4.996094-6.394531-11.304688-6.394531-18.167969 0-3.066407 2.511719-5.5625 5.597656-5.5625h-20.613281c-3.089844 0-5.597656 2.496093-5.597656 5.5625 0 6.859375 2.390625 13.171875 6.378906 18.167969zm0 0" fill="#ff812c"/><path d="m430.304688 417.804688-73.753907-141.648438s-8.277343-19.714844-34.144531-19.714844h-32.863281v72.324219h10.046875c-.019532.253906-.039063.511719-.039063.773437 0-5.722656 4.652344-10.386718 10.375-10.386718h26.304688c5.722656 0 10.378906 4.660156 10.378906 10.386718v44.78125c0 5.730469-4.65625 10.390626-10.378906 10.390626h-18.6875v42.339843c0 9.320313-7.628907 16.949219-16.953125 16.949219h-11.046875v60.5h65.558593c2.449219 0 4.433594-1.984375 4.433594-4.433594v-90.5l30.988282 35.40625c4.765624 5.441406 11.480468 8.285156 18.269531 8.285156 4.738281 0 9.511719-1.386718 13.675781-4.230468 10.140625-6.925782 13.503906-20.335938 7.835938-31.222656zm0 0" fill="#0079f1"/><path d="m211.421875 292.398438h33.988281v19.324218h-33.988281zm0 0" fill="#a7a9ac"/><path d="m260.363281 210.398438h-63.890625c-2.75 0-5 2.25-5 5v72c0 2.75 2.25 5 5 5h63.890625c2.75 0 5-2.25 5-5v-72c0-2.75-2.25-5-5-5zm0 0" fill="#6d6e71"/><path d="m212.398438 287.398438v-72c0-2.75 2.25-5 5-5h-20.925782c-2.75 0-5 2.25-5 5v72c0 2.75 2.25 5 5 5h20.925782c-2.75 0-5-2.25-5-5zm0 0" fill="#585959"/><path d="m209.472656 228.398438h37.890625v25.769531h-37.890625zm0 0" fill="#fff"/><path d="m309.925781 384.710938c-5.722656 0-10.375-4.660157-10.375-10.390626v-4.273437c0-3.207031 1.460938-6.082031 3.753907-7.988281-2.292969-1.90625-3.753907-4.78125-3.753907-7.992188v-4.269531c0-3.210937 1.460938-6.082031 3.753907-7.992187-2.292969-1.90625-3.753907-4.78125-3.753907-7.992188v-4.269531c0-.261719.019531-.519531.039063-.777344h-28.375l-6.820313-12.636719c-1.304687-2.421875-4.621093-4.402344-7.371093-4.402344h-57.210938c-2.75 0-6.070312 1.980469-7.375 4.402344l-6.820312 12.636719h-29.371094c-9.324219 0-16.953125 7.628906-16.953125 16.949219v43.765625h7.875c5.722656 0 10.375 4.660156 10.375 10.386719v4.273437c0 3.210937-1.460938 6.085937-3.75 7.992187 2.289062 1.90625 3.75 4.78125 3.75 7.988282v4.273437c0 3.210938-1.460938 6.085938-3.75 7.992188 2.289062 1.90625 3.75 4.78125 3.75 7.988281v3.625h143.046875c9.324218 0 16.953125-7.628906 16.953125-16.949219v-42.339843zm0 0" fill="#6d6e71"/><path d="m147.167969 389.476562c5.722656 0 10.375 4.664063 10.375 10.390626v4.269531c0 3.210937-1.460938 6.085937-3.753907 7.992187 2.292969 1.90625 3.753907 4.78125 3.753907 7.988282v3.191406h58.445312c-15.902343-5.21875-27.394531-20.175782-27.394531-37.824219 0-15.929687 9.363281-29.667969 22.882812-36.03125h-72.183593v40.023437zm0 0" fill="#383838"/><path d="m309.925781 384.710938c-5.722656 0-10.375-4.660157-10.375-10.390626v-4.273437c0-3.207031 1.460938-6.082031 3.753907-7.988281-2.292969-1.90625-3.753907-4.78125-3.753907-7.992188v-4.269531c0-.117187.015625-.226563.019531-.34375h-54.214843c13.523437 6.367187 22.886719 20.105469 22.886719 36.03125 0 17.648437-11.492188 32.605469-27.398438 37.828125h76.699219v-38.601562zm0 0" fill="#383838"/><path d="m139.292969 349.453125v40.023437h7.875c5.722656 0 10.375 4.664063 10.375 10.390626v4.269531c0 3.210937-1.460938 6.085937-3.75 7.992187 2.289062 1.90625 3.75 4.78125 3.75 7.988282v3.191406h2.746093v-73.855469zm0 0" fill="#282828"/><path d="m268.242188 385.484375c0-21.988281-17.832032-39.8125-39.824219-39.8125-21.996094 0-39.824219 17.824219-39.824219 39.8125s17.828125 39.8125 39.824219 39.8125c21.992187 0 39.824219-17.824219 39.824219-39.8125zm0 0" fill="#8a8c8e"/><path d="m248.976562 385.484375c0 11.351563-9.207031 20.554687-20.558593 20.554687-11.355469 0-20.558594-9.203124-20.558594-20.554687 0-11.347656 9.203125-20.550781 20.558594-20.550781 11.351562 0 20.558593 9.203125 20.558593 20.550781zm0 0" fill="#00cca5"/><path d="m220.171875 385.484375c0-9.203125 6.054687-16.996094 14.398437-19.609375-1.941406-.609375-4.011718-.941406-6.152343-.941406-11.355469 0-20.558594 9.203125-20.558594 20.550781 0 11.351563 9.203125 20.554687 20.558594 20.554687 2.144531 0 4.210937-.328124 6.152343-.9375-8.34375-2.621093-14.398437-10.410156-14.398437-19.617187zm0 0" fill="#02af8e"/><path d="m120.863281 455.035156c-5.722656 0-10.378906-4.660156-10.378906-10.390625v-44.777343c0-5.726563 4.65625-10.390626 10.378906-10.390626h26.304688c5.722656 0 10.375 4.664063 10.375 10.390626v4.269531c0 3.210937-1.460938 6.085937-3.75 7.992187 2.289062 1.90625 3.75 4.78125 3.75 7.988282v4.273437c0 3.210937-1.460938 6.085937-3.75 7.992187 2.289062 1.90625 3.75 4.78125 3.75 7.988282v4.273437c0 5.726563-4.652344 10.386719-10.375 10.386719h-26.304688zm0 0" fill="#ffe2b8"/><path d="m127.289062 444.648438v-44.78125c0-5.726563 4.652344-10.386719 10.378907-10.386719h-16.804688c-5.722656 0-10.378906 4.660156-10.378906 10.386719v44.78125c0 5.726562 4.65625 10.386718 10.378906 10.386718h16.804688c-5.726563 0-10.378907-4.660156-10.378907-10.386718zm0 0" fill="#ffc987"/><path d="m336.230469 384.710938c5.722656 0 10.378906-4.660157 10.378906-10.390626v-44.78125c0-5.722656-4.65625-10.386718-10.378906-10.386718h-26.304688c-5.722656 0-10.375 4.660156-10.375 10.386718v4.273438c0 3.210938 1.460938 6.082031 3.753907 7.992188-2.292969 1.90625-3.753907 4.78125-3.753907 7.988281v4.273437c0 3.210938 1.460938 6.085938 3.753907 7.992188-2.292969 1.90625-3.753907 4.78125-3.753907 7.988281v4.273437c0 5.726563 4.652344 10.386719 10.375 10.386719h26.304688zm0 0" fill="#ffe2b8"/><path d="m317.289062 374.320312v-4.273437c0-3.207031 1.460938-6.082031 3.75-7.988281-2.289062-1.90625-3.75-4.78125-3.75-7.992188v-4.269531c0-3.210937 1.460938-6.082031 3.75-7.992187-2.289062-1.90625-3.75-4.78125-3.75-7.992188v-4.269531c0-5.726563 4.652344-10.390625 10.375-10.390625h-17.738281c-5.722656 0-10.375 4.664062-10.375 10.390625v4.269531c0 3.210938 1.460938 6.085938 3.753907 7.992188-2.292969 1.910156-3.753907 4.78125-3.753907 7.992187v4.269531c0 3.210938 1.460938 6.085938 3.753907 7.992188-2.292969 1.90625-3.753907 4.78125-3.753907 7.988281v4.273437c0 5.730469 4.652344 10.390626 10.375 10.390626h17.738281c-5.722656 0-10.375-4.660157-10.375-10.390626zm0 0" fill="#ffc987"/><path d="m224.402344 173.515625h9.617187c4.140625 0 7.5-3.359375 7.5-7.5 0-4.144531-3.359375-7.5-7.5-7.5h-6.597656v-19.652344c0-4.144531-3.355469-7.5-7.496094-7.5-4.144531 0-7.5 3.355469-7.5 7.5v22.695313c0 6.589844 5.371094 11.957031 11.976563 11.957031zm0 0"/><path d="m191.585938 151.492188v-16.113282c0-4.144531-3.355469-7.5-7.5-7.5-4.140626 0-7.5 3.355469-7.5 7.5v16.113282c0 4.144531 3.359374 7.5 7.5 7.5 4.144531 0 7.5-3.355469 7.5-7.5zm0 0"/><path d="m197.363281 123.152344c1.464844 1.453125 3.375 2.183594 5.289063 2.183594 1.925781 0 3.851562-.738282 5.316406-2.210938 2.921875-2.9375 2.910156-7.6875-.027344-10.605469-13.152344-13.085937-34.554687-13.085937-47.707031 0-2.933594 2.921875-2.945313 7.667969-.027344 10.605469 2.921875 2.9375 7.671875 2.949219 10.609375.027344 7.316406-7.28125 19.226563-7.28125 26.546875 0zm0 0"/><path d="m269.328125 127.878906c-4.144531 0-7.5 3.355469-7.5 7.5v16.113282c0 4.144531 3.355469 7.5 7.5 7.5 4.140625 0 7.5-3.355469 7.5-7.5v-16.113282c0-4.144531-3.359375-7.5-7.5-7.5zm0 0"/><path d="m256.050781 123.152344c7.316407-7.28125 19.230469-7.28125 26.550781 0 1.464844 1.457031 3.375 2.183594 5.289063 2.183594 1.925781 0 3.851563-.738282 5.316406-2.210938 2.921875-2.9375 2.910157-7.6875-.027343-10.605469-13.152344-13.085937-34.554688-13.085937-47.707032 0-2.9375 2.917969-2.949218 7.667969-.03125 10.605469 2.921875 2.9375 7.671875 2.945312 10.609375.027344zm0 0"/><path d="m247.363281 220.898438h-37.890625c-4.144531 0-7.5 3.355468-7.5 7.5v25.769531c0 4.144531 3.355469 7.5 7.5 7.5h37.890625c4.140625 0 7.5-3.355469 7.5-7.5v-25.769531c0-4.144532-3.359375-7.5-7.5-7.5zm-7.5 25.769531h-22.890625v-10.769531h22.890625zm0 0"/><path d="m244.414062 337.230469c4.144532 0 7.5-3.359375 7.5-7.5 0-4.144531-3.355468-7.5-7.5-7.5h-31.992187c-4.144531 0-7.5 3.355469-7.5 7.5 0 4.140625 3.355469 7.5 7.5 7.5zm0 0"/><path d="m200.359375 385.484375c0 15.46875 12.585937 28.054687 28.058594 28.054687 15.472656 0 28.058593-12.585937 28.058593-28.054687 0-15.464844-12.585937-28.050781-28.058593-28.050781-15.472657 0-28.058594 12.585937-28.058594 28.050781zm41.117187 0c0 7.199219-5.859374 13.054687-13.058593 13.054687-7.203125 0-13.058594-5.855468-13.058594-13.054687 0-7.195313 5.855469-13.050781 13.058594-13.050781 7.199219 0 13.058593 5.855468 13.058593 13.050781zm0 0"/><path d="m436.957031 414.339844-73.65625-141.457032c-1.457031-3.167968-12.105469-23.941406-40.890625-23.941406h-49.546875v-6.222656c21.675781-10.652344 38.003907-30.527344 43.765625-54.457031h8.476563c12.90625 0 23.410156-10.476563 23.410156-23.351563v-19.183594c0-9.710937-5.976563-18.054687-14.457031-21.566406v-69.226562c0-30.289063-24.648438-54.933594-54.945313-54.933594h-146.011719c-11.363281 0-20.605468 9.242188-20.605468 20.601562 0 4.796876 1.617187 9.242188 4.398437 12.769532-2.78125 3.527344-4.398437 7.972656-4.398437 12.769531 0 5.9375 2.546875 11.492187 6.859375 15.351563v62.667968c-8.480469 3.515625-14.457031 11.855469-14.457031 21.566406v19.1875c0 12.871094 10.5 23.347657 23.410156 23.347657h8.488281c6.058594 25.167969 23.800781 45.847656 47.171875 56.035156v4.644531h-52.964844c-15.902344 0-29.71875 8.058594-38.6875 22.300782l-81.398437 110.644531c-16.875 22.921875-10.101563 42.398437-6.402344 49.707031 3.695313 7.308594 15.367187 24.3125 43.835937 24.3125 4.144532 0 7.5-3.359375 7.5-7.5 0-4.144531-3.355468-7.5-7.5-7.5-20.144531 0-28.003906-11.246094-30.449218-16.082031-2.445313-4.835938-6.84375-17.828125 5.097656-34.042969l85.363281-115.9375c5.851563-6.589844 13.738281-10.902344 22.644531-10.902344h25.035157v57.328125c-13.390625.109375-24.25 11.03125-24.25 24.445313v36.265625h-10.929688c-7.1875 0-13.386719 4.277343-16.222656 10.414062h-3.261719v-26.238281l16.722656-22.707031c2.457032-3.335938 1.742188-8.03125-1.59375-10.488281-3.335937-2.457032-8.03125-1.742188-10.484374 1.59375l-44.839844 60.894531c-1.675782 2.277343-1.929688 5.308593-.652344 7.832031 1.273438 2.523438 3.863281 4.117188 6.691406 4.117188h35.761719v33.507812h-19.695313c-4.144531 0-7.5 3.355469-7.5 7.5s3.355469 7.5 7.5 7.5h3.089844v44.164062c0 6.578126 5.355469 11.933594 11.933594 11.933594h256.792969c6.578125 0 11.933593-5.355468 11.933593-11.933594v-21.070312c0-4.144531-3.359374-7.5-7.5-7.5-4.144531 0-7.5 3.355469-7.5 7.5v18h-54.992187v-45.5h3.542969c13.484375 0 24.457031-10.96875 24.457031-24.449219v-34.839843h9.328125l17.664062 20.175781v31.613281c0 4.144531 3.355469 7.5 7.5 7.5 4.140626 0 7.5-3.355469 7.5-7.5v-14.476562l17.84375 20.390624c6.03125 6.890626 14.746094 10.84375 23.914063 10.84375 6.414063 0 12.601563-1.914062 17.902344-5.535156 13.265625-9.0625 17.675781-26.636718 10.257812-40.882812zm-350.578125-21.945313h-4.320312l4.320312-5.867187zm195.664063-128.453125v57.320313h-6.351563l-4.691406-8.695313c-2.605469-4.835937-8.484375-8.34375-13.976562-8.34375h-4.109376v-4.324218h7.449219c6.894531 0 12.5-5.605469 12.5-12.5v-23.457032zm-83.070313 20.957032v-67h58.890625v67zm38.9375 15v4.324218h-18.988281v-4.324218zm-32.609375-105.730469h43.785157c-.28125 3.152343-1.25 6.109375-2.746094 8.730469h-38.292969c-1.496094-2.625-2.464844-5.578126-2.746094-8.730469zm128.214844-48.441407v19.183594c0 4.605469-3.773437 8.351563-8.410156 8.351563h-6.335938c.070313-1.367188.117188-2.738281.117188-4.117188v-31.761719h6.21875c4.636719 0 8.410156 3.742188 8.410156 8.34375zm-205.203125 27.535157c-4.640625 0-8.414062-3.746094-8.414062-8.351563v-19.183594c0-4.601562 3.773437-8.347656 8.414062-8.347656h6.214844v31.761719c0 1.382813.046875 2.753906.117187 4.117187h-6.332031zm21.214844-4.117188v-49.417969c0-19.128906 7.214844-33.597656 21.4375-42.996093 13.078125-8.644531 32.355468-13.210938 55.742187-13.210938 10.949219 0 21.035157.988281 29.980469 2.945313 4.050781.886718 8.042969-1.679688 8.929688-5.726563.882812-4.046875-1.679688-8.042969-5.726563-8.929687-9.996094-2.183594-21.160156-3.292969-33.183594-3.292969-58.578125 0-92.179687 25.957031-92.179687 71.210937v2.652344h-.171875v-64.71875c0-2.75-1.503907-5.277344-3.917969-6.589844-1.8125-.984374-2.941406-2.875-2.941406-4.933593 0-2.585938 1.832031-4.882813 4.355468-5.453125 3.417969-.773438 5.847657-3.8125 5.84375-7.316406 0-3.503907-2.425781-6.542969-5.84375-7.3125-2.523437-.574219-4.359374-2.867188-4.359374-5.453126 0-3.089843 2.515624-5.605468 5.609374-5.605468h146.007813c22.027344 0 39.949219 17.914062 39.949219 39.933594v67.449218h-.175782v-2.65625c0-21.949218-7.695312-39.324218-22.875-51.632812-3.214843-2.609375-7.9375-2.117188-10.546874 1.097656-2.609376 3.21875-2.117188 7.941406 1.097656 10.550781 11.496094 9.324219 17.324218 22.777344 17.324218 39.984375v49.417969c0 23.65625-12.378906 44.472656-31.023437 56.398437v-10.144531c0-6.160156-4.484375-11.28125-10.359375-12.300781 1.074219-3.4375 1.671875-7.078125 1.671875-10.863281 0-7.203125-5.875-13.0625-13.097656-13.0625h-47.765625c-7.21875 0-13.097656 5.859375-13.097656 13.0625 0 4.007812.664062 7.863281 1.863281 11.480469-4.726563 1.78125-8.105469 6.339843-8.105469 11.6875v12.179687c-20.53125-11.488281-34.441406-33.367187-34.441406-58.433594zm21.515625 94.796875h12.929687v23.457032c0 6.894531 5.605469 12.5 12.5 12.5h7.449219v4.324218h-4.109375c-5.492188 0-11.371094 3.507813-13.976562 8.339844l-4.695313 8.699219h-10.097656zm-14.796875 72.324219h29.371094c2.757812 0 5.292968-1.515625 6.601562-3.941406l6.761719-12.527344c.199219-.214844.671875-.496094.957031-.570313h56.960938c.28125.074219.753906.351563.957031.566407l6.761719 12.53125c1.308593 2.425781 3.84375 3.941406 6.601562 3.941406h21.007812c.269532 1.9375.84375 3.808594 1.707032 5.539063-.023438.050781-.046875.101562-.070313.148437h-46.917969c-5.691406-2.429687-11.957031-3.777344-18.527343-3.777344-6.570313 0-12.832031 1.347657-18.523438 3.777344h-62.316406c1.453125-3.34375 4.789063-5.6875 8.667969-5.6875zm104.496094 49.21875c0 17.816406-14.503907 32.3125-32.324219 32.3125-17.824219 0-32.324219-14.492187-32.324219-32.3125 0-17.816406 14.5-32.308594 32.324219-32.308594 17.820312 0 32.324219 14.492188 32.324219 32.308594zm-142.757813 14.382813c0-1.59375 1.292969-2.890626 2.878906-2.890626h26.304688c1.585937 0 2.875 1.296876 2.875 2.890626v4.269531c0 .859375-.382813 1.671875-1.050781 2.226562-1.710938 1.425781-2.699219 3.539063-2.699219 5.765625 0 2.226563.988281 4.34375 2.699219 5.765625.667968.554688 1.050781 1.367188 1.050781 2.226563v4.273437c0 .859375-.382813 1.671875-1.050781 2.226563-1.710938 1.425781-2.703126 3.535156-2.699219 5.765625 0 2.230469.988281 4.339843 2.703125 5.765625.667968.554687 1.046875 1.363281 1.046875 2.222656v4.273438c0 1.59375-1.289063 2.886718-2.875 2.886718h-26.304688c-1.585937 0-2.878906-1.292968-2.878906-2.886718zm38.058594 97.132812h-54.664063v-41.097656h5.609375c3.277344 4.042968 8.277344 6.632812 13.875 6.632812h26.304688c3.230469 0 6.257812-.863281 8.875-2.371094zm-8.875-115.023438h-.378907v-25.023437h43.90625c-6.019531 7.9375-9.601562 17.824219-9.601562 28.53125 0 11.53125 4.148438 22.109375 11.03125 30.324219h-27.609375c-.316406-1.273438-.769531-2.507813-1.351563-3.679688 1.222657-2.449218 1.878907-5.175781 1.878907-7.992187v-4.269531c0-9.863282-8.019531-17.890626-17.875-17.890626zm57.921875 115.023438h-34.046875v-45.5h12.253906v8.863281c0 6.667969 5.421875 12.089844 12.085937 12.089844h9.707032zm-6.792969-39.546875v-5.953125h60.238281v5.953125zm38.445313 39.546875h-16.652344v-24.546875h16.652344zm45.300781 0h-30.300781v-24.546875h9.707031c6.664062 0 12.085937-5.421875 12.085937-12.089844v-8.863281h8.507813zm18.546875-60.5h-135.972656c-.316407-1.429688-.804688-2.8125-1.453126-4.117188.253907-.511718.480469-1.039062.683594-1.570312h51.015625c4.296875 1.285156 8.84375 1.984375 13.554688 1.984375 4.710937 0 9.257812-.699219 13.554687-1.984375h67.285156c-1.457031 3.339844-4.792968 5.6875-8.667968 5.6875zm9.453125-20.691406h-45.335938c6.882813-8.214844 11.035157-18.792969 11.035157-30.324219 0-10.707031-3.582032-20.59375-9.605469-28.53125h26.152343c.292969 1.785156.84375 3.503906 1.644532 5.105469-1.226563 2.449218-1.882813 5.175781-1.882813 7.988281v4.273437c0 9.863282 8.019531 17.886719 17.875 17.886719h.117188zm29.066406-41.488282c0 1.59375-1.292969 2.890626-2.878906 2.890626h-26.304688c-1.585937 0-2.875-1.296876-2.875-2.890626v-4.273437c0-.855469.382813-1.667969 1.050781-2.222656 1.710938-1.425781 2.703126-3.539063 2.703126-5.765625 0-2.230469-.992188-4.339844-2.703126-5.765625-.667968-.554688-1.050781-1.367188-1.050781-2.226563v-4.273437c0-.859375.382813-1.671875 1.050781-2.226563 1.710938-1.425781 2.703126-3.539062 2.703126-5.765625 0-2.226562-.992188-4.335937-2.703126-5.761719-.667968-.558593-1.050781-1.367187-1.050781-2.230468v-4.269532c0-1.59375 1.289063-2.890624 2.875-2.890624h26.304688c1.585937 0 2.878906 1.296874 2.878906 2.890624zm79.128906 68.515626c-2.796875 1.910156-6.0625 2.921874-9.445312 2.921874-4.839844 0-9.441407-2.085937-12.625-5.722656l-46.867188-53.546875c2.972657-3.199219 4.808594-7.46875 4.808594-12.167969v-20.28125l21.792969 24.898438c1.480468 1.695312 3.558594 2.558594 5.644531 2.558594 1.753906 0 3.515625-.609375 4.9375-1.855469 3.117187-2.726563 3.433594-7.464844.703125-10.582031l-33.078125-37.792969v-1.726563c0-9.863281-8.019531-17.886718-17.878906-17.886718h-26.304688c-5.0625 0-9.628906 2.125-12.882812 5.519531v-53.230469h25.363281c20.28125 0 26.980469 14.5625 27.226562 15.117188.082032.1875.167969.375.265626.558594l73.753906 141.648437c3.910156 7.515625 1.585937 16.789063-5.414063 21.570313zm0 0"/></svg>