<svg height="512" viewBox="0 0 64 64" width="512" xmlns="http://www.w3.org/2000/svg"><g id="Fill_Outline" data-name="Fill Outline"><g id="Color"><g><g><circle cx="55" cy="30" fill="#57b7eb" r="6"/><path d="m60.439 27.48a6 6 0 1 0 -8.373 7.751c.917-1.093 1.738-2.176 2.426-3.149a12.75 12.75 0 0 1 5.947-4.602z" fill="#4891d3"/><path d="m58.911 25.022-7.911 1.978v-6l5.21-3.789a1.745 1.745 0 0 1 2.59 2.189l-.075.151a1.746 1.746 0 0 0 .663 2.278 1.745 1.745 0 0 1 -.477 3.193z" fill="#f9e109"/><path d="m55.005 18.087-4.005 2.913v6l7.911-1.978a1.744 1.744 0 0 0 1.189-2.361 4.68 4.68 0 0 1 -5.095-4.574z" fill="#fcbc04"/><rect fill="#84d2f4" height="38" rx="16" width="32" x="22" y="3"/><path d="m51 21.164v-4.328a4.836 4.836 0 0 0 -4.836-4.836 8.55 8.55 0 0 1 -5.564-2.059l-.044-.041a13.035 13.035 0 0 1 -4.174-6.823 16 16 0 0 0 -14.382 15.923v6a15.99 15.99 0 0 0 31.968.625 4.836 4.836 0 0 1 -2.968-4.461z" fill="#57b7eb"/><path d="m24 39h28a8 8 0 0 1 8 8v14a0 0 0 0 1 0 0h-44a0 0 0 0 1 0 0v-14a8 8 0 0 1 8-8z" fill="#e9f1f2"/><path d="m56 54a4 4 0 0 0 -4-4h-4v-11h-3v9a2 2 0 0 1 -2 2h-5a7 7 0 0 1 -7-7v-4h-7a8 8 0 0 0 -8 8v14h44v-3a4 4 0 0 1 -4-4z" fill="#d0d8da"/><path d="m35 41a10.944 10.944 0 0 0 6.313-2h-12.626a10.944 10.944 0 0 0 6.313 2z" fill="#d0d8da"/><path d="m32 30h12a0 0 0 0 1 0 0v9a6 6 0 0 1 -6 6 6 6 0 0 1 -6-6v-9a0 0 0 0 1 0 0z" fill="#fcbc04"/><path d="m51 52.586v-13.586h-4v13l-9 2-9-2v-13h-4v13.586a3.415 3.415 0 0 1 -1 2.414 3.415 3.415 0 0 0 -1 2.414v3.586h30v-3.586a3.415 3.415 0 0 0 -1-2.414 3.415 3.415 0 0 1 -1-2.414z" fill="#57b7eb"/><path d="m36.529 40.882a11 11 0 0 0 7.471-4.576v-6.306h-12v9a5.994 5.994 0 0 0 10.482 3.979 10.948 10.948 0 0 1 -5.953-2.097z" fill="#e59730"/><path d="m38 38a11 11 0 0 1 -11-11v-11h1a10 10 0 0 0 8-4l1.791 1.023a22.587 22.587 0 0 0 11.209 2.977v11a11 11 0 0 1 -11 11z" fill="#f9e109"/><path d="m37.791 13.023-1.791-1.023a10 10 0 0 1 -8 4h-1v11a10.991 10.991 0 0 0 17.808 8.63 10.981 10.981 0 0 1 -13.808-10.63v-6.477a9.982 9.982 0 0 0 5-3.523l1.791 1.023a22.587 22.587 0 0 0 11.209 2.977v-3a22.587 22.587 0 0 1 -11.209-2.977z" fill="#fcbc04"/><path d="m38 38a7 7 0 0 1 -7-7v-4a25.484 25.484 0 0 1 14 0v4a7 7 0 0 1 -7 7z" fill="#e9f1f2"/><path d="m41 36a7 7 0 0 1 -7-7v-2.652a25.469 25.469 0 0 0 -3 .652v4a6.993 6.993 0 0 0 12.244 4.626 6.972 6.972 0 0 1 -2.244.374z" fill="#d0d8da"/><path d="m45.491 58.584a36.61 36.61 0 0 1 -14.541-2.148 6 6 0 0 1 -3.95-5.636v-11.8h-2v13.586a3.415 3.415 0 0 1 -1 2.414 3.415 3.415 0 0 0 -1 2.414v3.586h30v-2.833z" fill="#4891d3"/></g><g><path d="m7 32h4v29h-4z" fill="#f9e109"/><path d="m9 52v-13a2.99 2.99 0 0 1 2-2.816v-4.184h-4v29h4v-6.184a2.99 2.99 0 0 1 -2-2.816z" fill="#fcbc04"/><path d="m11 20h4a4 4 0 0 1 4 4v12a0 0 0 0 1 0 0 8 8 0 0 1 -8-8v-8a0 0 0 0 1 0 0z" fill="#d0d8da"/><path d="m15 28v-8h-4v8a8 8 0 0 0 8 8c-2.518-1.889-4-8-4-8z" fill="#93999a"/><path d="m9 20h6a0 0 0 0 1 0 0v8a6 6 0 0 1 -6 6 6 6 0 0 1 -6-6v-2a6 6 0 0 1 6-6z" fill="#e9f1f2"/><path d="m14 30a6 6 0 0 1 -6-6v-2a5.976 5.976 0 0 1 .334-1.961 6 6 0 0 0 -5.334 5.961v2a6 6 0 0 0 11.666 1.961 6.107 6.107 0 0 1 -.666.039z" fill="#d0d8da"/></g></g></g><g id="Outline_copy" data-name="Outline copy"><g fill="#464a51"><g><path d="m52 38h-3.059a17.019 17.019 0 0 0 5.927-10.937l3.383-.845a4.988 4.988 0 0 1 -3.251 8.782 1 1 0 0 0 0 2 6.991 6.991 0 0 0 5.279-11.584 2.752 2.752 0 0 0 -.378-4.441.75.75 0 0 1 -.283-.975l.075-.15a2.745 2.745 0 0 0 -4.07-3.449l-.754.548a17.032 17.032 0 0 0 -2.22-6.548 1 1 0 1 0 -1.724 1.014 14.973 14.973 0 0 1 2.075 7.585v6a15.013 15.013 0 0 1 -7.536 13h-.464v-1.273a11.981 11.981 0 0 0 5-9.727v-11a1 1 0 0 0 -1-1 21.626 21.626 0 0 1 -10.713-2.845l-1.787-1.023a1 1 0 0 0 -1.3.267 9.043 9.043 0 0 1 -7.2 3.601h-1a1 1 0 0 0 0 2h1a11.06 11.06 0 0 0 8.238-3.712l1.056.6a23.656 23.656 0 0 0 10.706 3.091v6.521l-3.22 2.415a26.457 26.457 0 0 0 -13.56 0l-3.22-2.415v-3.5a1 1 0 0 0 -2 0v7a11.981 11.981 0 0 0 5 9.727v1.273h-.464a15.015 15.015 0 0 1 -7.536-13v-6a15 15 0 0 1 25.646-10.563 1 1 0 0 0 1.42-1.409 17 17 0 0 0 -29.066 11.972v6a17.009 17.009 0 0 0 6.059 13h-3.059a9.01 9.01 0 0 0 -9 9v14a1 1 0 0 0 2 0v-14a7.008 7.008 0 0 1 7-7v12.586a2.4 2.4 0 0 1 -.708 1.707 4.387 4.387 0 0 0 -1.292 3.121v3.586a1 1 0 0 0 2 0v-3.586a2.4 2.4 0 0 1 .708-1.707 4.387 4.387 0 0 0 1.292-3.121v-12.586h5.08a6.991 6.991 0 0 0 13.84 0h1.08v11.2l-8 1.778-8-1.778v-8.2a1 1 0 0 0 -2 0v9a1 1 0 0 0 .783.977l9 2a1.035 1.035 0 0 0 .434 0l9-2a1 1 0 0 0 .783-.977v-12h4a7.008 7.008 0 0 1 7 7v14a1 1 0 0 0 2 0v-14a9.01 9.01 0 0 0 -9-9zm4.8-19.98a.745.745 0 0 1 1.105.936l-.075.15a2.758 2.758 0 0 0 1.043 3.583.747.747 0 0 1 -.2 1.364l-3.673.917v-5.643zm-8.8 8.98a9.929 9.929 0 0 1 -2.411 6.487 7.907 7.907 0 0 0 .411-2.487v-3.5l2-1.5zm-16 .767a24.422 24.422 0 0 1 12 0v3.233a6 6 0 0 1 -12 0zm-4-.767v-1l2 1.5v3.5a7.892 7.892 0 0 0 .412 2.48 9.913 9.913 0 0 1 -2.412-6.48zm10 17a5.006 5.006 0 0 1 -5-5v-1.1a11.865 11.865 0 0 0 10 0v1.1a5.006 5.006 0 0 1 -5 5z"/><path d="m41.707 21.707a1.831 1.831 0 0 1 2.586 0 1 1 0 0 0 1.414-1.414 3.834 3.834 0 0 0 -5.414 0 1 1 0 0 0 1.414 1.414z"/><path d="m31.707 21.707a1.831 1.831 0 0 1 2.586 0 1 1 0 0 0 1.414-1.414 3.834 3.834 0 0 0 -5.414 0 1 1 0 0 0 1.414 1.414z"/><path d="m52 52.586v-9.586a1 1 0 0 0 -2 0v9.586a4.387 4.387 0 0 0 1.292 3.121 2.4 2.4 0 0 1 .708 1.707v3.586a1 1 0 0 0 2 0v-3.586a4.387 4.387 0 0 0 -1.292-3.121 2.4 2.4 0 0 1 -.708-1.707z"/><path d="m38.6 7.2a1 1 0 1 0 -1.2 1.6 21.615 21.615 0 0 0 9.368 4.009 1.028 1.028 0 0 0 .165.013 1 1 0 0 0 .164-1.986 19.6 19.6 0 0 1 -8.497-3.636z"/><path d="m31.051 8.685-.051.153a3.159 3.159 0 0 1 -3 2.162 1 1 0 0 0 0 2 5.155 5.155 0 0 0 4.9-3.53l.051-.155a1 1 0 1 0 -1.9-.63z"/><path d="m35.317 30.948a8.551 8.551 0 0 1 5.367 0 1 1 0 1 0 .632-1.9 10.518 10.518 0 0 0 -6.631 0 1 1 0 1 0 .632 1.9z"/><path d="m40.447 33.1a5.5 5.5 0 0 0 -4.893 0 1 1 0 1 0 .894 1.79 3.482 3.482 0 0 1 3.1 0 1 1 0 1 0 .894-1.79z"/></g><g><path d="m15 19h-6a7.008 7.008 0 0 0 -7 7v2a7 7 0 0 0 4 6.315v26.685a1 1 0 0 0 2 0v-26.08a7.026 7.026 0 0 0 1 .08 6.95 6.95 0 0 0 3.409-.892 8.9 8.9 0 0 0 6.591 2.892 1 1 0 0 0 1-1v-12a5.006 5.006 0 0 0 -5-5zm3 5v9.138a24.856 24.856 0 0 1 -2-5.263v-6.691a3 3 0 0 1 2 2.816zm-1.5 10.533a6.931 6.931 0 0 1 -2.492-1.65 6.994 6.994 0 0 0 1.048-1.383 19.356 19.356 0 0 0 1.444 3.033zm-12.5-6.533v-2a5.006 5.006 0 0 1 5-5h5v7a5.009 5.009 0 0 1 -4 4.9v-.657a9.239 9.239 0 0 1 1.35-4.808 1 1 0 1 0 -1.708-1.041 11.241 11.241 0 0 0 -1.466 3.973l-.087-.267a6.326 6.326 0 0 1 .743-5.549 1 1 0 0 0 -1.664-1.11 8.324 8.324 0 0 0 -.977 7.292l.57 1.709a4.987 4.987 0 0 1 -2.761-4.442z"/><path d="m11 36.651a1 1 0 0 0 -1 1v23.349a1 1 0 0 0 2 0v-23.349a1 1 0 0 0 -1-1z"/></g></g></g></g></svg>