<svg id="Layer_1" height="512" viewBox="0 0 512 512" width="512" xmlns="http://www.w3.org/2000/svg" data-name="Layer 1"><path d="m461.79 393.69v107.31h-411.58v-107.31a63.336 63.336 0 0 1 63.34-63.34h33.03a52.955 52.955 0 0 0 21.02-4.32 127.24 127.24 0 0 0 176.8 0 52.955 52.955 0 0 0 21.02 4.32h33.03a63.336 63.336 0 0 1 63.34 63.34z" fill="#6d7486"/><path d="m324.37 310.99a53.239 53.239 0 0 0 20.03 15.04 127.24 127.24 0 0 1 -176.8 0 53.239 53.239 0 0 0 20.03-15.04l.94.1a98.984 98.984 0 0 0 134.86 0z" fill="#4a5160"/><path d="m324.37 310.99-.94.1a98.984 98.984 0 0 1 -134.86 0l-.94-.1a53 53 0 0 0 12.15-33.85v-21.88l.41-.49a86.8 86.8 0 0 0 111.62 0l.41.49v21.88a53 53 0 0 0 12.15 33.85z" fill="#ffd39f"/><path d="m347.13 124.74h-4.34v-26.95a86.79 86.79 0 0 0 -173.58 0v90.51a86.425 86.425 0 0 0 20.55 56.08c1.55 1.83 3.17 3.6 4.87 5.29q2.67 2.67 5.56 5.1a86.79 86.79 0 0 0 142.6-66.47v-31.01h4.34a16.275 16.275 0 1 0 0-32.55z" fill="#ffd8b7"/><path d="m400.27 396.24v33.52c0 8-5.35 18.09-11.95 22.59l-23.91 16.29-23.91-16.29a29.135 29.135 0 0 1 -9.24-11.58 26.976 26.976 0 0 1 -2.72-11.01v-33.57l35.87-17.55z" fill="#e04a5d"/><path d="m239.33 234.38a10 10 0 0 1 0 20h-10v-20z" fill="#3090fc"/><path d="m268.7 124.59 2.87 11.48h-31.14l2.87-11.48a9.942 9.942 0 0 0 -1.78-8.52h28.96a9.942 9.942 0 0 0 -1.78 8.52z" fill="#6d7486"/><path d="m270.48 116.07a9.933 9.933 0 0 1 7.92-3.9h44.19a10 10 0 0 1 10 10v27.8a10.005 10.005 0 0 1 -11.96 9.81l-38.83-6.37a10 10 0 0 1 -7.74-7.38l-2.49-9.96-2.87-11.48a9.942 9.942 0 0 1 1.78-8.52z" fill="#4a5160"/><path d="m169.21 115v50h-9a25 25 0 1 1 0-50z" fill="#3090fc"/><path d="m143.55 330.35h-30a63.336 63.336 0 0 0 -63.34 63.34v107.31h30v-107.31a63.336 63.336 0 0 1 63.34-63.34z" fill="#b0b5ca"/><path d="m230.19 254.77q-2.9-2.43-5.56-5.1c-1.7-1.69-3.32-3.46-4.87-5.29a86.425 86.425 0 0 1 -20.55-56.08v-90.51a86.81 86.81 0 0 1 71.79-85.49 86.846 86.846 0 0 0 -101.79 85.49v90.51a86.425 86.425 0 0 0 20.55 56.08c1.55 1.83 3.17 3.6 4.87 5.29q2.67 2.67 5.56 5.1a86.421 86.421 0 0 0 55.81 20.32 87.321 87.321 0 0 0 15-1.3 86.4 86.4 0 0 1 -40.81-19.02z" fill="#efc597"/><path d="m241.52 116.07a9.942 9.942 0 0 1 1.78 8.52l-2.87 11.48-2.49 9.96a10 10 0 0 1 -7.74 7.38l-36.83 6.37a10.005 10.005 0 0 1 -11.96-9.81v-27.8a10 10 0 0 1 10-10h42.19a9.933 9.933 0 0 1 7.92 3.9z" fill="#4a5160"/><g fill="#284268"><path d="m398.448 324.346h-33.026a47.255 47.255 0 0 1 -47.2-47.2v-20.062a92.582 92.582 0 0 0 30.572-68.784v-25.072a22.274 22.274 0 0 0 0-44.425v-21.009a92.794 92.794 0 1 0 -185.588 0v11.206h-3a30.988 30.988 0 0 0 -17.07 56.859v39.941a44.558 44.558 0 0 0 43.948 44.572 94 94 0 0 0 6.695 6.712v20.061a47.255 47.255 0 0 1 -47.2 47.2h-33.027a69.417 69.417 0 0 0 -69.339 69.339v107.316a6 6 0 0 0 6 6h411.574a6 6 0 0 0 6-6v-107.315a69.417 69.417 0 0 0 -69.339-69.339zm-59.848-174.375v-20.948a5.974 5.974 0 0 0 4.2 1.718h4.34a10.274 10.274 0 1 1 0 20.548h-4.34a5.981 5.981 0 0 0 -4.575 2.124 16.083 16.083 0 0 0 .375-3.442zm-197.394-9.971a19.021 19.021 0 0 1 19-19h3v38h-3a19.022 19.022 0 0 1 -19-19zm28.136 92.708a32.6 32.6 0 0 1 -14.206-26.908v-35.219a31.045 31.045 0 0 0 5.07.422h3v17.3a92.241 92.241 0 0 0 13.5 48.153 32.423 32.423 0 0 1 -7.364-3.745zm23.33 5.673a80.381 80.381 0 0 1 -17.466-50.081v-90.506a80.794 80.794 0 1 1 161.588 0v17.031a16.005 16.005 0 0 0 -14.2-8.656h-44.194a15.874 15.874 0 0 0 -10.447 3.9h-23.91a15.874 15.874 0 0 0 -10.447-3.9h-42.191a16.019 16.019 0 0 0 -16 16v27.8a15.986 15.986 0 0 0 19.053 15.706l36.765-6.356.154-.028a16.073 16.073 0 0 0 12.385-11.809l1.353-5.413h21.771l1.353 5.414a16.07 16.07 0 0 0 12.384 11.808c.068.014.137.025.206.037l38.741 6.353a16.119 16.119 0 0 0 3.045.291 15.94 15.94 0 0 0 14.179-8.662v30.99a80.745 80.745 0 0 1 -132.432 62.083h18.968v4a6 6 0 0 0 6 6h10a16 16 0 0 0 0-32h-10a6 6 0 0 0 -6 6v4zm133.928-116.212v27.8a4 4 0 0 1 -4.785 3.922c-.069-.014-.138-.026-.206-.038l-38.709-6.344a4.018 4.018 0 0 1 -3.016-2.935l-5.36-21.434a4 4 0 0 1 3.881-4.971h44.195a4 4 0 0 1 4 4zm-62.71 7.9h-15.77l1.006-4.023a16.069 16.069 0 0 0 .468-3.977h12.822a16.077 16.077 0 0 0 .468 3.978zm-26.406-6.932-5.359 21.434a4.021 4.021 0 0 1 -3.037 2.941l-36.738 6.35-.155.029a4 4 0 0 1 -4.785-3.922v-27.8a4 4 0 0 1 4-4h42.19a4 4 0 0 1 3.881 4.97zm78.515 186.535a93.305 93.305 0 0 1 -119.987 0 58.84 58.84 0 0 0 9.772-32.528v-10.844a92.613 92.613 0 0 0 100.442 0v10.849a58.836 58.836 0 0 0 9.768 32.525zm-80.664-61.29v-8h4a4 4 0 0 1 0 8zm-46.9 70.6a105.008 105.008 0 0 0 135.145 0 59.685 59.685 0 0 0 10.463 8.327 121.472 121.472 0 0 1 -156.07 0 59.631 59.631 0 0 0 10.454-8.33zm267.352 176.018h-399.574v-101.315a57.4 57.4 0 0 1 57.339-57.339h33.026a58.921 58.921 0 0 0 19.652-3.367 133.443 133.443 0 0 0 179.54 0 58.921 58.921 0 0 0 19.652 3.367h33.026a57.4 57.4 0 0 1 57.339 57.339z"/><path d="m402.917 390.853-35.866-17.6a6 6 0 0 0 -5.28 0l-35.871 17.547a6 6 0 0 0 -3.363 5.389v33.575a32.7 32.7 0 0 0 3.274 13.532 35.109 35.109 0 0 0 11.3 14.014l23.919 16.29a6 6 0 0 0 6.757 0l23.908-16.29c8.312-5.661 14.579-17.5 14.579-27.546v-33.525a6 6 0 0 0 -3.357-5.386zm-8.643 38.91c0 6-4.361 14.242-9.335 17.629l-20.531 13.988-20.533-13.989a23.219 23.219 0 0 1 -7.176-9.153 21.024 21.024 0 0 1 -2.157-8.475v-29.83l29.858-14.611 29.87 14.657z"/><path d="m353.422 418.3a6 6 0 0 0 -8.379 8.59l10.833 10.566a6 6 0 0 0 8.379 0l19.518-19.037a6 6 0 0 0 -8.378-8.59l-15.33 14.95z"/></g></svg>